<mxfile host="app.diagrams.net" modified="2020-10-15T16:16:26.216Z" agent="5.0 (Windows)" etag="eE9YUQCW1NMoxQb28fKm" version="13.8.0" type="github">
  <diagram id="0cxhvaiDsh4hNfI1xczU" name="Page-1">
    <mxGraphModel dx="1022" dy="404" grid="1" gridSize="10" guides="1" tooltips="1" connect="1" arrows="1" fold="1" page="1" pageScale="1" pageWidth="1654" pageHeight="1169" math="0" shadow="0">
      <root>
        <mxCell id="0" />
        <mxCell id="1" parent="0" />
        <mxCell id="kQDjmzPkPCCLayXsqmqO-3" style="edgeStyle=orthogonalEdgeStyle;rounded=0;orthogonalLoop=1;jettySize=auto;html=1;exitX=1;exitY=0.5;exitDx=0;exitDy=0;entryX=0;entryY=0.5;entryDx=0;entryDy=0;" edge="1" parent="1" source="kQDjmzPkPCCLayXsqmqO-1" target="kQDjmzPkPCCLayXsqmqO-2">
          <mxGeometry relative="1" as="geometry" />
        </mxCell>
        <mxCell id="kQDjmzPkPCCLayXsqmqO-12" style="edgeStyle=orthogonalEdgeStyle;rounded=0;orthogonalLoop=1;jettySize=auto;html=1;exitX=0;exitY=0.25;exitDx=0;exitDy=0;entryX=1;entryY=0.25;entryDx=0;entryDy=0;" edge="1" parent="1" source="kQDjmzPkPCCLayXsqmqO-1" target="kQDjmzPkPCCLayXsqmqO-10">
          <mxGeometry relative="1" as="geometry" />
        </mxCell>
        <mxCell id="kQDjmzPkPCCLayXsqmqO-1" value="FrontEnd show the content and stores data to backend, and shows it to the user" style="shape=ext;rounded=1;html=1;whiteSpace=wrap;" vertex="1" parent="1">
          <mxGeometry x="320" y="200" width="120" height="80" as="geometry" />
        </mxCell>
        <mxCell id="kQDjmzPkPCCLayXsqmqO-7" style="edgeStyle=orthogonalEdgeStyle;rounded=0;orthogonalLoop=1;jettySize=auto;html=1;exitX=1;exitY=0.75;exitDx=0;exitDy=0;entryX=0;entryY=0.7;entryDx=0;entryDy=0;" edge="1" parent="1" source="kQDjmzPkPCCLayXsqmqO-2" target="kQDjmzPkPCCLayXsqmqO-4">
          <mxGeometry relative="1" as="geometry" />
        </mxCell>
        <mxCell id="kQDjmzPkPCCLayXsqmqO-9" style="edgeStyle=orthogonalEdgeStyle;rounded=0;orthogonalLoop=1;jettySize=auto;html=1;exitX=0;exitY=0.25;exitDx=0;exitDy=0;entryX=1;entryY=0.25;entryDx=0;entryDy=0;" edge="1" parent="1" source="kQDjmzPkPCCLayXsqmqO-2" target="kQDjmzPkPCCLayXsqmqO-1">
          <mxGeometry relative="1" as="geometry" />
        </mxCell>
        <mxCell id="kQDjmzPkPCCLayXsqmqO-2" value="&lt;div&gt;BackEnd stores the data to database and forwards it back to frontend&lt;/div&gt;" style="shape=ext;rounded=1;html=1;whiteSpace=wrap;" vertex="1" parent="1">
          <mxGeometry x="560" y="200" width="120" height="80" as="geometry" />
        </mxCell>
        <mxCell id="kQDjmzPkPCCLayXsqmqO-8" style="edgeStyle=orthogonalEdgeStyle;rounded=0;orthogonalLoop=1;jettySize=auto;html=1;exitX=0;exitY=0.3;exitDx=0;exitDy=0;entryX=1;entryY=0.25;entryDx=0;entryDy=0;" edge="1" parent="1" source="kQDjmzPkPCCLayXsqmqO-4" target="kQDjmzPkPCCLayXsqmqO-2">
          <mxGeometry relative="1" as="geometry" />
        </mxCell>
        <mxCell id="kQDjmzPkPCCLayXsqmqO-4" value="&lt;div&gt;MongoDB&lt;/div&gt;stores data" style="shape=datastore;whiteSpace=wrap;html=1;" vertex="1" parent="1">
          <mxGeometry x="760" y="200" width="67" height="80" as="geometry" />
        </mxCell>
        <mxCell id="kQDjmzPkPCCLayXsqmqO-11" style="edgeStyle=orthogonalEdgeStyle;rounded=0;orthogonalLoop=1;jettySize=auto;html=1;exitX=1;exitY=0.5;exitDx=0;exitDy=0;entryX=0;entryY=0.5;entryDx=0;entryDy=0;" edge="1" parent="1" source="kQDjmzPkPCCLayXsqmqO-10" target="kQDjmzPkPCCLayXsqmqO-1">
          <mxGeometry relative="1" as="geometry" />
        </mxCell>
        <mxCell id="kQDjmzPkPCCLayXsqmqO-10" value="User clicks web page links" style="shape=ext;rounded=1;html=1;whiteSpace=wrap;" vertex="1" parent="1">
          <mxGeometry x="120" y="200" width="120" height="80" as="geometry" />
        </mxCell>
        <mxCell id="kQDjmzPkPCCLayXsqmqO-13" value="Project data flow" style="text;html=1;strokeColor=none;fillColor=none;align=center;verticalAlign=middle;whiteSpace=wrap;rounded=0;" vertex="1" parent="1">
          <mxGeometry x="210" y="150" width="320" height="20" as="geometry" />
        </mxCell>
        <mxCell id="kQDjmzPkPCCLayXsqmqO-14" value="Project hierarchy" style="text;html=1;strokeColor=none;fillColor=none;align=center;verticalAlign=middle;whiteSpace=wrap;rounded=0;" vertex="1" parent="1">
          <mxGeometry x="340" y="410" width="190" height="20" as="geometry" />
        </mxCell>
        <mxCell id="kQDjmzPkPCCLayXsqmqO-23" style="edgeStyle=orthogonalEdgeStyle;rounded=0;orthogonalLoop=1;jettySize=auto;html=1;exitX=1;exitY=0.5;exitDx=0;exitDy=0;" edge="1" parent="1" source="kQDjmzPkPCCLayXsqmqO-21" target="kQDjmzPkPCCLayXsqmqO-22">
          <mxGeometry relative="1" as="geometry" />
        </mxCell>
        <mxCell id="kQDjmzPkPCCLayXsqmqO-21" value="Home page" style="shape=ext;rounded=1;html=1;whiteSpace=wrap;" vertex="1" parent="1">
          <mxGeometry x="380" y="480" width="120" height="80" as="geometry" />
        </mxCell>
        <mxCell id="kQDjmzPkPCCLayXsqmqO-22" value="Pricing" style="shape=ext;rounded=1;html=1;whiteSpace=wrap;" vertex="1" parent="1">
          <mxGeometry x="480" y="600" width="120" height="80" as="geometry" />
        </mxCell>
      </root>
    </mxGraphModel>
  </diagram>
</mxfile>
